<?xml version="1.0" standalone="no"?>
<!DOCTYPE svg PUBLIC "-//W3C//DTD SVG 20010904//EN"
 "http://www.w3.org/TR/2001/REC-SVG-20010904/DTD/svg10.dtd">
<svg version="1.0" xmlns="http://www.w3.org/2000/svg"
 width="186.000000pt" height="186.000000pt" viewBox="0 0 186.000000 186.000000"
 preserveAspectRatio="xMidYMid meet">
<metadata>
Created by potrace 1.11, written by Peter Selinger 2001-2013
</metadata>
<g transform="translate(0.000000,186.000000) scale(0.100000,-0.100000)"
fill="#000000" stroke="none">
<path d="M631 1836 c-12 -7 -33 -11 -45 -9 -11 2 -52 -8 -91 -21 -53 -19 -63
-26 -40 -25 17 0 41 6 55 14 35 20 66 18 82 -4 13 -18 18 -21 38 -21 36 0 48
-132 18 -195 -16 -34 -122 -145 -138 -145 -6 0 -40 81 -40 96 0 5 -7 19 -16
30 -15 18 -15 18 -9 -11 3 -16 7 -40 9 -52 7 -41 18 -63 27 -58 5 3 6 -2 2
-11 -5 -13 -3 -15 7 -9 9 5 11 4 6 -4 -4 -6 -11 -9 -15 -7 -4 3 -7 -35 -6 -85
1 -49 -3 -89 -8 -89 -5 0 -7 9 -4 20 3 11 2 22 -3 25 -14 9 -18 -34 -4 -46 10
-8 11 -16 3 -30 -12 -24 15 -73 74 -134 21 -22 33 -30 25 -17 -7 12 -16 22
-21 22 -4 0 -5 5 -2 10 3 6 2 10 -3 10 -17 0 -28 51 -31 135 -1 43 -5 83 -7
87 -3 4 0 8 5 8 6 0 11 -12 11 -27 0 -16 7 -52 14 -80 8 -29 12 -53 10 -53 -3
0 3 -11 12 -25 9 -14 21 -22 27 -18 5 3 7 2 4 -4 -3 -5 7 -19 22 -31 22 -16
31 -18 41 -9 10 9 11 9 5 -2 -6 -11 -4 -13 8 -8 9 3 19 1 23 -5 4 -7 10 -5 16
6 7 13 13 14 23 6 9 -8 14 -6 19 6 4 9 9 14 13 11 3 -4 12 1 20 11 8 9 11 11
7 3 -5 -9 -3 -12 5 -7 6 4 9 11 6 16 -3 5 -1 11 5 15 6 4 8 11 5 16 -4 5 -2 9
3 9 11 0 10 56 -1 67 -6 5 -45 13 -48 9 0 -1 -2 -21 -5 -46 -7 -65 -8 -66 -52
-77 -36 -9 -45 -8 -81 14 -54 32 -77 80 -84 172 -5 59 -2 81 11 103 9 15 19
28 23 28 4 0 15 3 23 6 12 5 15 2 10 -10 -7 -18 11 -22 22 -4 4 7 3 8 -4 4 -8
-5 -10 -2 -6 8 4 10 1 16 -7 16 -9 1 -8 4 4 11 9 6 14 15 11 21 -5 7 -2 8 6 3
10 -6 12 -4 7 9 -4 10 -3 15 3 11 21 -13 52 87 55 178 1 48 -1 87 -5 87 -3 0
-7 7 -7 15 0 8 5 15 11 15 6 0 4 5 -4 11 -12 8 -9 9 9 4 18 -6 23 -4 19 7 -4
10 3 15 24 16 36 3 49 -4 42 -23 -4 -8 -10 -12 -15 -9 -5 3 -9 -4 -9 -15 0
-12 5 -21 11 -21 5 0 7 -4 4 -10 -3 -6 1 -7 9 -4 20 8 21 24 1 24 -13 0 -14 2
-3 14 11 12 15 9 25 -18 16 -43 15 -49 -3 -42 -15 6 -15 4 -3 -10 15 -19 21
-44 9 -44 -4 0 -6 -14 -5 -31 2 -23 -1 -29 -12 -25 -7 3 -16 -1 -19 -9 -3 -7
-11 -13 -17 -11 -7 1 -9 1 -5 -1 4 -3 10 -3 12 -1 3 2 12 -6 20 -17 14 -19 15
-19 9 5 -6 25 -6 24 20 -5 15 -16 26 -25 25 -20 -3 11 4 15 25 15 9 0 9 -2 -1
-9 -11 -7 -11 -11 2 -24 12 -11 13 -17 3 -20 -9 -4 -8 -6 2 -6 11 -1 11 -4 1
-16 -9 -11 -9 -15 -1 -15 7 0 10 -4 6 -9 -3 -6 3 -14 12 -20 14 -8 15 -11 3
-11 -12 0 -11 -3 3 -11 9 -5 17 -17 17 -25 0 -8 4 -12 10 -9 6 3 7 -1 4 -9 -3
-9 -1 -16 5 -16 6 0 11 -5 11 -11 0 -5 -4 -8 -8 -5 -4 2 -8 -4 -8 -14 0 -13 6
-17 20 -14 12 2 16 0 10 -5 -5 -5 -20 -11 -34 -13 -23 -4 -24 -5 -5 -13 11 -5
23 -13 27 -19 5 -8 8 -7 8 1 0 8 9 9 32 2 18 -5 34 -9 35 -9 1 0 -1 7 -4 17
-4 11 -3 14 5 9 7 -4 12 -2 12 4 0 6 5 8 11 5 5 -4 28 12 50 36 29 31 36 45
27 51 -11 6 -10 8 0 8 7 0 17 12 22 26 6 14 15 22 20 19 13 -8 9 17 -5 28 -6
5 0 7 13 4 17 -4 21 -2 14 6 -5 7 -6 21 -1 32 4 11 8 17 8 12 1 -8 61 20 61
29 0 2 -10 -1 -22 -7 -20 -11 -21 -10 -11 3 7 8 10 17 7 21 -3 3 2 4 13 1 10
-2 31 7 48 22 31 27 14 23 -19 -5 -11 -9 -16 -11 -12 -4 3 7 21 22 38 35 17
12 28 17 25 11 -4 -7 -3 -14 3 -18 5 -3 10 1 10 10 0 10 5 13 12 9 7 -5 9 -2
5 9 -5 12 0 14 20 11 15 -3 30 -7 34 -10 4 -2 13 4 19 13 10 16 11 16 6 1 -3
-10 0 -20 6 -24 6 -4 8 -3 5 3 -4 6 -1 13 7 16 20 8 57 -3 50 -15 -4 -6 2 -6
14 1 16 9 19 7 18 -7 -1 -11 5 -16 17 -14 9 2 17 -2 17 -8 0 -6 5 -8 10 -5 5
3 10 1 10 -5 0 -6 5 -8 10 -5 6 3 10 3 10 -2 0 -4 14 -14 30 -21 36 -16 81
-79 102 -143 18 -54 20 -148 4 -168 -6 -8 -10 -16 -8 -18 7 -9 1 -43 -7 -38
-5 3 -13 0 -17 -6 -5 -8 -3 -9 6 -4 8 5 11 3 8 -6 -3 -8 -14 -13 -24 -11 -14
2 -16 1 -5 -6 11 -8 10 -12 -5 -20 -15 -9 -17 -13 -6 -23 10 -11 12 -11 12 0
0 7 14 30 31 51 17 21 28 43 25 48 -3 6 0 12 6 14 9 3 13 31 13 94 0 73 -5 97
-24 137 -34 69 -101 131 -188 174 -65 32 -86 38 -137 37 -71 -2 -78 -3 -131
-31 -51 -26 -110 -90 -165 -177 -39 -62 -81 -106 -101 -106 -5 0 -9 16 -9 35
0 49 -53 109 -89 101 -24 -6 -25 -5 -6 6 12 7 19 20 17 30 -2 9 2 19 7 23 16
9 13 42 -4 49 -9 3 -15 18 -15 34 0 65 -52 160 -103 188 -29 16 -147 16 -176
0z m289 -236 c20 -12 9 -21 -18 -13 -12 3 -19 9 -16 14 7 11 15 11 34 -1z
m-103 -15 c0 -8 -4 -12 -9 -9 -5 3 -6 10 -3 15 9 13 12 11 12 -6z m84 -58
c-10 -9 -11 -8 -5 6 3 10 9 15 12 12 3 -3 0 -11 -7 -18z m41 -59 c-7 -7 -12
-8 -12 -2 0 14 12 26 19 19 2 -3 -1 -11 -7 -17z m-12 -40 c0 -19 -2 -20 -10
-8 -13 19 -13 30 0 30 6 0 10 -10 10 -22z m56 -44 c-7 -37 -10 -37 -37 -7 -13
15 -16 21 -7 14 15 -11 19 -11 24 3 10 26 25 18 20 -10z m-476 -44 c0 -5 -4
-10 -10 -10 -5 0 -10 5 -10 10 0 6 5 10 10 10 6 0 10 -4 10 -10z"/>
<path d="M398 1793 c7 -3 16 -2 19 1 4 3 -2 6 -13 5 -11 0 -14 -3 -6 -6z"/>
<path d="M540 1738 c-30 -54 -37 -82 -21 -92 14 -9 22 6 10 21 -9 10 -8 13 4
13 8 0 18 -6 20 -12 4 -10 6 -10 6 0 1 7 -6 15 -14 18 -12 5 -12 9 2 30 8 13
12 24 8 24 -5 0 2 8 13 19 24 20 28 31 12 31 -5 0 -23 -24 -40 -52z"/>
<path d="M690 1781 c0 -5 8 -15 18 -22 15 -12 16 -12 5 2 -7 9 -10 19 -6 22 3
4 1 7 -5 7 -7 0 -12 -4 -12 -9z"/>
<path d="M595 1749 c-4 -6 -5 -12 -2 -15 2 -3 7 2 10 11 7 17 1 20 -8 4z"/>
<path d="M171 1698 c-109 -19 -166 -97 -166 -228 0 -83 10 -134 25 -125 5 3 7
0 5 -8 -3 -7 8 -32 25 -55 40 -55 46 -91 26 -142 -9 -24 -16 -69 -16 -112 0
-84 6 -86 14 -6 3 32 15 86 27 121 l23 63 -44 90 c-57 114 -65 196 -29 269 13
26 34 56 48 66 44 35 159 54 205 34 15 -6 17 -5 11 5 -5 9 -4 11 4 6 6 -4 10
-10 8 -14 -2 -4 7 -17 20 -29 13 -12 23 -17 23 -11 0 6 3 8 6 5 4 -4 2 -13 -4
-20 -14 -16 -6 -28 13 -20 10 3 13 -3 11 -24 -2 -15 3 -38 11 -50 8 -12 12
-30 9 -40 -7 -22 8 -48 23 -39 8 5 6 18 -4 43 -8 20 -13 38 -11 41 3 2 0 16
-5 30 -7 18 -6 27 2 32 7 5 3 20 -16 49 -44 71 -117 92 -244 69z"/>
<path d="M550 1641 c0 -6 4 -13 10 -16 6 -3 7 1 4 9 -7 18 -14 21 -14 7z"/>
<path d="M1350 1640 c0 -5 5 -10 11 -10 5 0 7 5 4 10 -3 6 -8 10 -11 10 -2 0
-4 -4 -4 -10z"/>
<path d="M1450 1640 c0 -5 5 -10 11 -10 5 0 7 5 4 10 -3 6 -8 10 -11 10 -2 0
-4 -4 -4 -10z"/>
<path d="M152 1609 c7 -5 25 -6 40 -3 16 3 29 0 34 -8 7 -12 7 -122 -1 -242
-4 -58 7 -91 40 -124 20 -20 25 -22 25 -8 0 9 -10 30 -22 46 -19 27 -21 41
-20 173 0 79 -4 150 -8 157 -5 8 -28 15 -55 15 -28 1 -41 -1 -33 -6z"/>
<path d="M1420 1580 c-25 -6 -25 -6 -4 -18 15 -8 24 -8 32 0 6 6 16 7 24 2 7
-5 20 -7 29 -6 9 2 19 -4 23 -13 3 -9 11 -13 17 -10 6 4 22 -4 36 -16 l26 -24
-19 27 c-10 15 -25 28 -32 28 -8 0 -10 5 -6 13 4 6 4 9 0 6 -4 -4 -28 -1 -54
5 -26 7 -58 10 -72 6z"/>
<path d="M1289 1523 c-13 -17 -13 -17 6 -3 11 8 22 16 24 17 2 2 0 3 -6 3 -6
0 -17 -8 -24 -17z"/>
<path d="M1184 1505 c-10 -8 -14 -15 -8 -15 6 0 17 7 24 15 16 19 9 19 -16 0z"/>
<path d="M1610 1500 c0 -5 0 -13 1 -17 0 -4 -8 -10 -18 -14 -16 -7 -16 -8 -1
-8 9 -1 20 4 23 9 4 6 11 7 17 4 11 -7 29 16 22 28 -7 12 -44 10 -44 -2z m35
-9 c-9 -8 -36 -10 -30 -2 2 4 11 8 20 8 8 0 13 -3 10 -6z"/>
<path d="M1278 1480 c-43 -8 -81 -37 -74 -57 3 -7 -1 -13 -10 -13 -8 0 -12 -4
-9 -10 3 -5 2 -10 -2 -10 -11 0 -49 -62 -45 -74 2 -5 -4 -6 -12 -3 -10 4 -13
1 -10 -7 3 -8 1 -17 -5 -21 -16 -9 -13 -25 3 -25 8 0 24 12 35 26 18 23 20 23
18 5 -1 -12 -5 -21 -10 -21 -4 0 -5 -4 -2 -10 8 -14 34 11 28 27 -3 7 1 13 9
13 8 0 26 17 40 38 13 20 30 36 36 35 15 -4 16 13 1 22 -5 4 -20 -1 -32 -12
-16 -13 -18 -14 -9 -1 7 9 9 18 3 20 -5 1 -2 13 8 25 11 13 22 18 31 13 9 -6
7 -10 -9 -15 -11 -3 -21 -11 -21 -16 0 -6 8 -6 20 1 11 6 21 8 21 5 1 -3 3 -9
4 -15 1 -5 3 -20 4 -31 1 -17 5 -20 24 -14 12 4 34 6 50 6 18 -1 27 4 27 14 0
13 -4 14 -22 4 -21 -11 -22 -11 -9 5 8 10 23 15 33 13 10 -3 18 -1 18 4 0 9
-4 11 -42 13 -12 0 -23 6 -25 13 -3 8 6 12 26 10 17 -1 31 -5 31 -9 0 -5 4 -8
10 -8 5 0 7 6 4 14 -3 8 -1 17 4 20 6 3 9 -7 8 -23 -1 -17 1 -28 5 -25 4 2 10
0 13 -5 11 -16 45 -1 38 17 -5 15 -4 15 12 0 9 -10 20 -18 23 -18 3 0 2 8 -2
18 -5 14 -4 15 6 5 10 -10 10 -16 1 -25 -16 -16 -15 -41 1 -35 6 2 11 11 9 18
-1 8 7 3 18 -11 11 -14 20 -19 20 -12 0 7 6 10 13 7 6 -4 4 0 -5 8 -10 8 -18
18 -18 22 0 26 -100 74 -167 81 -32 3 -62 7 -68 8 -5 1 -27 -1 -47 -4z m52
-47 c0 -2 -3 -2 -7 0 -5 1 -9 -1 -10 -5 -2 -5 0 -8 5 -9 33 -4 35 -45 2 -45
-25 0 -25 5 -2 23 9 8 12 12 6 9 -15 -7 -30 13 -32 41 -1 20 0 21 19 5 10 -9
19 -18 19 -19z m-95 8 c-3 -6 -11 -11 -16 -11 -5 0 -4 6 3 14 14 16 24 13 13
-3z m235 -16 c0 -8 -6 -17 -12 -21 -7 -4 -10 -4 -6 1 4 4 3 16 -3 26 -7 15 -6
17 6 13 8 -4 15 -12 15 -19z m-265 -66 l20 -9 -20 3 c-11 1 -25 -4 -32 -13
-10 -13 -11 -11 -6 8 6 24 9 25 38 11z m-1 -34 c3 -9 0 -15 -9 -15 -9 0 -12 6
-9 15 4 8 7 15 9 15 2 0 5 -7 9 -15z"/>
<path d="M617 1437 c3 -7 12 -19 19 -27 7 -8 14 -28 16 -45 1 -16 10 -36 18
-43 8 -8 9 -11 3 -7 -19 9 -16 -36 4 -60 14 -18 15 -19 9 -1 -5 16 -4 17 9 6
8 -7 13 -16 10 -20 -3 -5 4 -6 14 -3 26 7 33 27 20 60 -12 33 -28 44 -51 37
-21 -6 -24 9 -5 24 26 22 87 -63 79 -111 -3 -13 2 -16 20 -14 23 4 24 6 15 30
-4 9 -6 9 -6 0 -1 -18 -18 -16 -18 2 0 31 -35 91 -64 107 -16 10 -27 13 -24 8
3 -6 -1 -10 -9 -10 -9 0 -13 6 -10 14 8 20 -12 53 -36 59 -13 3 -18 1 -13 -6z"/>
<path d="M1609 1433 c-10 -11 -10 -14 -1 -9 7 4 12 1 12 -8 0 -10 6 -13 16 -9
15 5 15 7 0 15 -9 5 -14 13 -11 19 10 15 -2 10 -16 -8z"/>
<path d="M1665 1441 c-3 -5 2 -17 11 -25 22 -22 31 -20 11 2 -10 10 -14 22
-10 25 3 4 4 7 0 7 -3 0 -8 -4 -12 -9z"/>
<path d="M433 1393 c2 -22 -5 -34 -35 -57 -38 -28 -98 -105 -98 -125 0 -6 -4
-11 -9 -11 -5 0 -11 -10 -14 -22 -3 -13 -10 -39 -15 -59 -7 -29 -7 -36 4 -35
7 1 17 6 21 11 5 4 1 4 -7 0 -12 -7 -13 -6 -3 7 7 8 10 17 7 21 -3 3 0 15 6
27 9 17 14 19 26 10 11 -10 15 -9 20 5 6 14 12 12 40 -16 19 -18 34 -43 34
-55 0 -13 5 -26 10 -29 6 -3 10 -16 11 -28 1 -20 2 -20 8 3 l7 25 6 -27 c3
-16 1 -28 -3 -28 -5 0 -9 -5 -9 -11 0 -5 4 -8 9 -5 5 3 12 -1 15 -10 8 -21 8
-20 -10 -38 -8 -9 -11 -16 -5 -16 6 0 11 -8 11 -17 0 -15 -2 -16 -10 -3 -8 13
-10 12 -10 -3 0 -9 -11 -22 -25 -29 -13 -6 -22 -16 -18 -21 4 -6 0 -8 -10 -4
-20 7 -22 -4 -5 -21 21 -21 37 -13 69 31 30 40 31 45 25 113 -7 84 -34 142
-89 189 l-37 32 29 40 c16 22 40 49 54 60 21 16 25 26 23 68 -2 27 -8 51 -14
53 -7 2 -10 -8 -9 -25z"/>
<path d="M1495 1389 c-4 -6 -5 -12 -2 -15 2 -3 7 2 10 11 7 17 1 20 -8 4z"/>
<path d="M1649 1390 c-18 -10 -18 -52 -1 -58 14 -4 15 7 3 27 -7 10 -4 19 7
28 20 14 14 17 -9 3z"/>
<path d="M1702 1365 c0 -16 2 -22 5 -12 2 9 2 23 0 30 -3 6 -5 -1 -5 -18z"/>
<path d="M1420 1369 c0 -18 26 -33 41 -23 12 7 12 34 -1 34 -5 0 -7 -7 -4 -15
8 -20 -6 -19 -22 3 -12 15 -13 15 -14 1z"/>
<path d="M1253 1353 c-20 -8 -15 -22 7 -20 11 1 20 7 20 14 0 14 -6 15 -27 6z"/>
<path d="M882 1334 c-7 -8 -8 -14 -3 -14 10 0 25 19 20 25 -2 1 -10 -3 -17
-11z"/>
<path d="M1474 1341 c-7 -7 18 -31 32 -31 8 0 14 -7 14 -15 0 -8 7 -15 15 -15
12 0 13 4 5 19 -13 26 -14 52 0 31 8 -13 10 -13 10 1 0 12 -9 16 -36 15 -20
-1 -38 -3 -40 -5z"/>
<path d="M1573 1343 c-7 -3 -13 -12 -13 -21 0 -15 2 -15 17 1 18 18 16 27 -4
20z"/>
<path d="M1706 1315 c4 -8 7 -15 9 -15 2 0 5 7 9 15 3 9 0 15 -9 15 -9 0 -12
-6 -9 -15z"/>
<path d="M1630 1305 c0 -8 8 -15 18 -14 10 0 12 3 4 6 -6 2 -10 9 -6 14 3 5 0
9 -5 9 -6 0 -11 -7 -11 -15z"/>
<path d="M1577 1304 c-3 -3 -3 -12 0 -20 4 -10 10 -11 24 -3 11 5 17 14 14 20
-7 10 -28 12 -38 3z"/>
<path d="M815 1280 c3 -5 8 -10 11 -10 2 0 4 5 4 10 0 6 -5 10 -11 10 -5 0 -7
-4 -4 -10z"/>
<path d="M1684 1270 c0 -11 1 -20 3 -20 1 0 7 9 13 20 8 15 8 20 -3 20 -7 0
-13 -9 -13 -20z"/>
<path d="M1619 1278 c-7 -31 -6 -35 12 -31 21 6 21 24 1 31 -7 2 -12 2 -13 0z"/>
<path d="M1560 1263 c5 -2 8 -9 5 -13 -3 -5 -1 -11 4 -14 5 -4 8 2 7 11 -2 9
-8 18 -15 19 -6 1 -7 0 -1 -3z"/>
<path d="M1057 1248 c-15 -5 -25 -13 -22 -18 3 -4 -27 -6 -65 -4 -44 2 -70 -1
-70 -7 0 -6 -6 -7 -12 -3 -9 5 -9 2 1 -9 10 -13 10 -17 1 -17 -10 0 -10 -3 0
-15 10 -12 10 -19 2 -27 -7 -7 -12 -20 -12 -31 0 -11 -4 -15 -11 -11 -7 4 -10
1 -7 -7 5 -14 -38 -59 -56 -59 -5 0 -6 -3 -3 -7 11 -10 -23 -42 -38 -36 -8 2
-22 0 -32 -5 -12 -7 -26 -6 -45 4 -15 8 -28 11 -28 6 0 -14 56 -30 73 -20 25
13 17 -26 -18 -96 -36 -73 -111 -136 -162 -136 -73 0 -181 61 -212 119 -34 62
-46 205 -21 251 7 13 5 21 -6 31 -8 7 -14 8 -13 3 1 -5 0 -13 -1 -19 -1 -5 -3
-21 -4 -35 -1 -19 -7 -26 -29 -28 -22 -3 -26 -7 -23 -27 2 -12 8 -49 11 -80 4
-31 15 -73 25 -93 l18 -36 -38 -17 c-74 -33 -120 -125 -120 -243 0 -81 27
-148 91 -220 46 -52 146 -104 215 -111 46 -5 52 -3 57 15 3 11 1 18 -4 14 -5
-3 -9 0 -9 5 0 6 0 14 0 19 0 4 3 7 8 8 40 6 75 19 79 30 8 21 23 17 17 -3 -5
-15 -4 -16 5 -3 6 8 11 18 11 23 0 12 -28 8 -44 -8 -8 -8 -21 -15 -30 -15 -8
0 -18 -5 -21 -10 -4 -7 -12 -7 -25 0 -34 18 -48 12 -42 -17 5 -26 4 -27 -14
-13 -17 14 -18 14 -6 -1 10 -14 10 -18 -4 -23 -21 -8 -24 -8 -24 5 0 5 5 7 10
4 6 -3 10 -4 10 0 0 11 -45 22 -60 15 -12 -6 -16 -3 -17 11 -1 13 2 17 10 12
7 -4 6 1 -2 11 -12 15 -12 17 0 14 8 -2 17 -10 20 -17 4 -11 7 -9 11 7 4 15 2
22 -9 22 -8 0 -28 9 -44 21 -16 11 -30 18 -30 15 -7 -32 9 -55 23 -33 11 17
18 4 11 -21 -3 -12 -12 -22 -20 -22 -8 0 -12 4 -9 9 3 5 -2 8 -11 7 -10 0 -18
4 -18 9 -1 19 -16 35 -27 29 -6 -4 -8 -3 -5 3 4 5 -3 19 -13 31 -11 12 -20 28
-20 37 0 12 3 13 19 3 11 -7 18 -15 15 -19 -7 -11 14 -21 28 -13 8 5 7 10 -4
18 -12 10 -25 30 -58 96 -5 8 -14 14 -21 12 -10 -3 -10 0 0 12 10 12 10 19 0
38 -11 21 -13 37 -10 96 1 10 8 27 17 38 8 10 13 13 9 7 -4 -8 -1 -11 8 -7 8
3 13 13 10 23 -3 11 2 21 13 25 15 6 15 4 3 -11 -9 -13 -6 -11 11 3 39 33 71
37 97 12 13 -12 23 -27 23 -35 0 -18 15 -16 31 5 13 15 12 16 -4 3 -15 -12
-17 -12 -12 2 4 10 -1 17 -14 22 -12 3 -21 13 -21 21 0 14 -36 72 -52 84 -8 6
-18 52 -21 92 -1 15 -5 29 -8 32 -8 9 2 66 12 66 11 0 11 -3 0 -34 -7 -16 -7
-26 0 -28 5 -2 10 -20 11 -41 1 -21 5 -40 10 -43 4 -3 8 -14 8 -25 0 -10 16
-36 35 -56 19 -20 35 -41 35 -45 0 -4 3 -7 7 -6 18 5 74 -22 68 -33 -6 -8 -10
-7 -16 2 -4 7 -10 11 -14 8 -3 -3 4 -14 16 -25 15 -14 20 -15 17 -4 -3 15 0
16 97 7 49 -4 80 10 126 60 41 44 88 123 82 139 -2 6 2 16 9 22 11 8 13 3 10
-29 -2 -21 -9 -39 -14 -39 -6 0 -8 -7 -4 -15 3 -9 0 -15 -9 -15 -7 0 -19 -16
-26 -34 -7 -19 -16 -33 -20 -30 -4 2 -11 -5 -14 -17 -4 -13 -12 -18 -21 -15
-9 3 -12 1 -9 -4 4 -6 -7 -16 -24 -23 -17 -7 -29 -16 -25 -19 3 -4 -4 -4 -15
-1 -17 4 -20 2 -15 -11 8 -20 18 -20 37 -1 8 8 17 11 21 8 3 -4 6 -1 6 6 0 8
7 11 15 7 8 -3 14 -2 14 2 -3 20 2 25 12 12 10 -13 10 -13 6 0 -5 18 12 36 33
35 8 -1 21 3 28 8 8 6 12 6 12 -1 0 -6 -4 -14 -10 -17 -5 -3 -10 -14 -10 -23
0 -11 12 -4 40 23 22 21 40 45 40 52 0 7 4 13 9 13 5 0 12 10 15 23 2 12 3
-12 0 -53 -6 -108 -66 -300 -94 -300 -15 0 -23 -41 -10 -54 10 -8 12 -7 7 5
-4 12 1 15 19 13 13 -1 27 3 31 8 3 7 1 8 -6 4 -16 -10 -3 43 15 65 8 8 14 24
14 35 1 18 1 18 11 1 9 -14 7 -22 -8 -32 -14 -11 -15 -14 -3 -15 21 0 44 37
27 43 -9 4 -9 6 1 6 13 1 17 27 5 34 -5 2 -2 2 5 1 6 -2 12 0 12 4 0 5 -6 14
-12 21 -10 11 -10 13 0 7 6 -4 12 -2 12 4 0 6 4 9 8 6 5 -3 9 1 9 9 0 8 -3 12
-6 11 -3 -2 -6 6 -6 19 0 18 3 21 13 13 8 -7 12 -7 12 1 0 6 4 11 9 11 13 0
10 -43 -4 -52 -6 -5 -5 -8 4 -8 10 0 11 -3 2 -14 -8 -10 -9 -16 -1 -21 6 -3 8
-11 5 -16 -4 -5 1 -9 9 -9 24 0 29 20 10 36 -11 9 -14 13 -8 10 15 -7 33 14
44 52 8 29 7 30 -15 22 -23 -9 -35 -5 -35 12 0 5 5 6 10 3 15 -9 47 3 54 21 3
8 2 12 -3 9 -5 -3 -13 0 -17 6 -4 7 -3 9 4 5 6 -3 13 -2 16 3 4 5 0 11 -7 13
-9 2 -8 8 5 21 17 16 18 15 18 -23 0 -31 4 -40 18 -41 14 0 14 -2 2 -7 -9 -4
-16 -24 -18 -52 -7 -110 -59 -204 -119 -216 -34 -7 -57 2 -47 17 3 6 12 5 22
-3 12 -10 14 -10 8 -1 -4 7 -16 18 -28 24 -16 9 -19 8 -13 -2 6 -9 3 -11 -9
-6 -15 6 -16 5 -2 -14 15 -22 12 -49 -6 -49 -5 0 -7 4 -4 9 3 4 -5 6 -18 4
-25 -5 -30 -23 -24 -78 2 -17 13 -10 13 8 1 7 7 11 15 9 10 -1 9 2 -4 12 -18
14 -15 36 5 36 6 0 8 -4 5 -9 -4 -5 3 -7 14 -4 11 3 20 12 20 19 0 8 7 14 16
14 11 0 14 -6 10 -17 -5 -15 -3 -14 9 2 18 22 23 23 37 3 8 -10 9 -9 5 4 -3 9
1 19 9 22 22 9 26 7 18 -6 -4 -7 -3 -8 5 -4 6 4 9 12 6 17 -4 5 3 9 14 9 20 0
26 11 21 35 -1 5 2 7 5 3 13 -12 45 11 39 27 -4 9 0 23 7 32 8 9 9 14 3 10 -7
-4 -14 2 -17 13 -3 13 1 21 13 25 20 6 21 32 2 44 -7 4 -5 11 8 19 14 9 19 9
18 1 -2 -6 4 -14 12 -16 10 -3 11 -2 4 4 -6 4 -10 18 -9 30 1 18 -1 20 -11 12
-10 -8 -12 -6 -9 10 3 15 -1 21 -13 21 -14 0 -14 2 -3 9 9 6 12 19 8 37 -5 26
-4 27 8 11 13 -18 14 -18 24 0 6 10 11 13 11 6 0 -6 -4 -14 -8 -17 -10 -6 -9
-36 2 -54 4 -6 5 -16 1 -21 -3 -5 -1 -12 5 -16 6 -4 8 -11 5 -16 -4 -5 0 -9 7
-9 7 0 2 -7 -11 -17 -23 -15 -23 -17 -6 -30 24 -17 32 -16 39 3 4 10 2 13 -6
8 -7 -5 -8 -3 -2 7 13 21 14 39 1 39 -9 0 -9 2 -1 8 16 10 13 140 -3 146 -7 3
-13 2 -13 -3 0 -5 -10 -11 -22 -14 -23 -6 -23 -6 -3 9 11 8 29 22 39 30 18 15
19 15 13 0 -4 -9 -3 -16 1 -16 21 0 37 -69 36 -150 -1 -71 -6 -93 -28 -134
-14 -26 -23 -52 -20 -57 3 -5 -1 -9 -8 -9 -9 0 -9 -3 2 -10 13 -9 7 -14 -12
-11 -4 0 -12 -8 -17 -18 -9 -15 -7 -20 10 -24 12 -3 18 -3 15 0 -3 4 1 17 9
30 9 13 13 23 10 23 -3 0 5 10 18 23 12 12 26 21 30 19 5 -1 6 2 2 7 -3 6 -13
7 -23 4 -14 -6 -15 -4 -5 9 7 8 10 17 7 20 -2 3 2 8 9 11 9 3 14 -1 13 -11 0
-9 4 -16 10 -15 8 1 10 -6 6 -19 -3 -15 -2 -19 7 -14 6 4 9 11 6 16 -3 5 -1
11 5 15 20 12 10 26 -10 15 -19 -10 -20 -8 -16 14 3 15 0 26 -5 26 -6 0 -7 4
-4 10 4 6 11 5 19 -3 8 -6 12 -15 10 -19 -2 -3 4 -5 13 -4 9 2 19 9 21 17 3
12 2 12 -6 0 -6 -8 -12 -9 -16 -3 -3 6 1 17 10 26 8 9 12 21 8 28 -6 10 -4 10
8 0 10 -8 19 -9 22 -3 9 14 -4 19 -41 16 -33 -3 -45 8 -19 18 15 6 10 57 -5
57 -5 0 -9 5 -9 11 0 5 5 7 10 4 6 -3 10 1 10 10 0 9 -4 14 -8 11 -5 -3 -8 5
-7 17 1 12 -2 27 -7 34 -5 7 -5 14 1 18 7 4 5 15 -6 32 -9 14 -18 33 -19 42
-1 9 -5 24 -9 34 -4 10 -3 17 5 17 6 0 8 -4 5 -10 -3 -5 -1 -10 5 -10 6 0 8
-4 5 -10 -3 -5 1 -10 10 -10 12 0 15 6 10 21 -5 15 -4 19 4 15 6 -4 11 -14 11
-22 0 -8 5 -14 11 -14 5 0 7 -4 4 -10 -3 -5 1 -10 9 -10 9 0 16 -7 16 -17 0
-15 -1 -15 -18 0 -10 10 -22 14 -26 10 -4 -4 -4 0 0 10 5 13 2 16 -10 11 -13
-5 -14 -10 -5 -20 6 -7 8 -18 5 -23 -4 -5 -2 -12 3 -16 6 -3 7 -13 4 -22 -5
-12 -2 -15 14 -11 18 5 20 1 17 -33 -3 -42 19 -61 36 -29 11 20 4 50 -12 50
-6 0 -5 -6 2 -15 10 -12 10 -15 -4 -15 -23 0 -20 25 7 44 22 16 21 16 -16 11
-23 -3 -36 -1 -32 4 3 5 1 12 -4 16 -6 3 -8 12 -5 20 4 8 10 12 15 9 5 -3 6
-10 3 -16 -4 -7 -2 -8 4 -4 7 4 12 3 12 -2 0 -5 7 -9 15 -9 10 0 14 6 10 15
-3 9 -10 36 -16 60 -9 42 -52 111 -88 140 -14 11 -13 12 6 9 11 -1 28 -9 37
-16 16 -13 36 -7 36 11 0 6 -7 5 -17 -3 -11 -10 -14 -10 -9 -1 4 7 2 12 -4 12
-6 0 -8 5 -4 11 4 8 9 7 15 -2 5 -8 9 -10 9 -6 0 5 15 0 33 -10 17 -11 43 -18
57 -17 14 1 32 -2 40 -7 10 -5 11 -8 3 -9 -7 0 -13 -9 -13 -21 0 -11 -5 -17
-10 -14 -7 4 -7 13 0 26 6 11 7 19 1 19 -5 0 -12 -12 -16 -27 -7 -28 13 -53
43 -53 9 0 12 -7 8 -22 -3 -13 -3 -17 0 -10 3 6 10 12 15 12 6 0 7 -5 3 -12
-5 -7 -3 -8 5 -4 9 6 8 12 -4 26 -11 12 -13 20 -5 25 12 7 4 25 -11 25 -6 0
-8 -4 -4 -9 3 -5 1 -12 -4 -15 -5 -4 -8 1 -7 10 1 8 8 19 15 23 16 10 21 41
10 63 -5 9 -26 25 -47 35 -20 9 -42 24 -48 31 -6 8 -24 15 -41 16 -17 0 -29 6
-26 11 3 10 -50 35 -86 41 -8 2 -24 5 -35 7 -12 3 -33 1 -49 -5z m186 -73 c-3
-9 -8 -14 -10 -11 -3 3 -2 9 2 15 9 16 15 13 8 -4z m38 -9 c5 3 9 1 9 -5 0 -5
-9 -9 -19 -8 -12 1 -17 6 -13 16 4 10 7 11 10 3 2 -7 8 -10 13 -6z m12 -43
c-3 -7 -9 -13 -13 -13 -4 0 -10 6 -13 13 -3 7 3 13 13 13 10 0 16 -6 13 -13z
m27 -3 c-12 -8 -12 -10 -1 -10 8 0 12 -3 8 -6 -9 -9 -28 6 -22 17 4 5 12 9 18
9 7 0 6 -4 -3 -10z m-150 -34 c0 -2 -9 -6 -20 -9 -11 -3 -18 -1 -14 4 5 9 34
13 34 5z m-35 -46 c3 -5 1 -10 -4 -10 -6 0 -11 5 -11 10 0 6 2 10 4 10 3 0 8
-4 11 -10z m30 0 c3 -5 1 -10 -4 -10 -6 0 -11 5 -11 10 0 6 2 10 4 10 3 0 8
-4 11 -10z m-98 -122 c-3 -8 -6 -5 -6 6 -1 11 2 17 5 13 3 -3 4 -12 1 -19z
m-257 -13 c0 -8 -4 -15 -10 -15 -5 0 -7 7 -4 15 4 8 8 15 10 15 2 0 4 -7 4
-15z m7 -33 c-13 -15 -14 -21 -4 -31 9 -10 9 -12 -3 -9 -8 2 -15 -4 -16 -12
-3 -38 -4 -41 -16 -33 -18 11 -31 11 -47 -1 -28 -21 1 17 48 64 44 43 71 59
38 22z m98 10 c-3 -3 -11 0 -18 7 -9 10 -8 11 6 5 10 -3 15 -9 12 -12z m145 4
c0 -2 -7 -7 -16 -10 -8 -3 -12 -2 -9 4 6 10 25 14 25 6z m-86 -32 c3 -8 2 -12
-4 -9 -6 3 -10 10 -10 16 0 14 7 11 14 -7z m-37 0 c-3 -4 -2 -15 4 -25 6 -11
6 -19 0 -19 -5 0 -12 7 -15 16 -6 16 0 34 11 34 4 0 3 -3 0 -6z m-13 -49 c3
-9 12 -12 23 -9 15 5 15 4 3 -4 -8 -6 -19 -8 -25 -5 -5 3 0 -4 13 -16 27 -27
28 -35 3 -21 -14 7 -22 7 -27 -2 -5 -7 -3 -8 7 -3 12 7 12 6 1 -7 -8 -9 -20
-14 -29 -11 -12 5 -12 7 -1 14 17 11 19 49 2 49 -8 0 -14 4 -14 10 0 5 7 6 17
3 11 -4 14 -3 9 5 -4 7 -3 12 2 12 6 0 12 -7 16 -15z m191 -14 c3 -5 1 -12 -5
-16 -6 -4 -7 -12 -4 -18 4 -7 3 -9 -1 -4 -13 11 -17 47 -6 47 6 0 12 -4 16 -9z
m-155 -111 c-8 -6 -11 -10 -7 -10 5 0 5 -5 2 -10 -4 -6 -11 -8 -16 -4 -6 4 -3
14 7 25 9 11 20 17 23 14 3 -4 -1 -10 -9 -15z m260 -16 c0 -1 -3 -9 -6 -18 -5
-12 -9 -13 -19 -3 -7 7 -11 15 -9 18 3 5 34 8 34 3z m-240 -142 c0 -4 -10 -13
-22 -21 -23 -14 -23 -14 -4 8 20 22 26 25 26 13z m-777 -17 c3 -5 -7 -11 -22
-11 -14 -1 -20 1 -12 3 11 5 11 7 0 14 -10 6 -7 8 8 6 13 0 24 -6 26 -12z
m580 -20 c-3 -9 -8 -14 -10 -11 -3 3 -2 9 2 15 9 16 15 13 8 -4z m-308 -195
c-2 -11 0 -20 6 -20 5 0 9 -4 9 -9 0 -5 -9 -7 -21 -4 -14 4 -18 11 -13 22 3 9
7 21 7 28 0 7 4 10 8 7 4 -2 6 -13 4 -24z"/>
<path d="M1670 1222 c-15 -19 -24 -42 -15 -42 2 0 11 14 20 30 18 34 16 38 -5
12z"/>
<path d="M1567 1204 c-3 -3 -3 -12 0 -20 3 -8 1 -14 -4 -12 -5 2 -26 -12 -48
-31 -22 -18 -35 -31 -28 -27 6 3 14 0 16 -6 3 -8 6 -6 6 5 1 19 21 24 21 5 0
-9 3 -9 9 1 5 8 7 21 4 30 -3 12 0 11 11 -3 16 -19 16 -19 16 2 0 12 4 22 9
22 5 0 8 7 7 15 -3 18 -11 27 -19 19z"/>
<path d="M1633 1173 c6 -10 -21 -42 -30 -35 -1 1 -2 0 0 -1 6 -9 -28 -37 -39
-33 -16 6 -38 -19 -31 -36 3 -8 6 -6 6 5 1 10 5 16 10 13 9 -6 81 47 94 69 4
8 2 17 -4 21 -7 4 -9 3 -6 -3z"/>
<path d="M1640 1115 c-10 -12 -10 -15 4 -15 10 0 15 -4 12 -9 -3 -5 -8 -27
-10 -49 -3 -31 -1 -39 10 -35 17 6 19 -23 2 -33 -7 -4 -8 -3 -4 4 4 7 3 12 -2
12 -14 0 -20 -69 -7 -74 6 -3 5 -5 -2 -5 -7 -1 -10 -8 -6 -18 4 -11 3 -14 -5
-9 -7 4 -12 3 -12 -2 0 -6 7 -12 15 -16 11 -4 15 2 17 19 2 47 3 50 11 56 4 3
10 29 14 59 5 44 4 52 -8 45 -11 -6 -12 -5 -1 6 16 17 15 54 -2 68 -10 9 -16
8 -26 -4z"/>
<path d="M1244 1089 c-7 -12 9 -25 21 -17 2 2 12 -8 21 -21 15 -21 18 -22 26
-6 7 12 6 21 -2 28 -10 9 -12 8 -6 -8 5 -17 4 -18 -6 -5 -27 32 -46 42 -54 29z"/>
<path d="M1472 1086 c7 -8 15 -12 17 -11 5 6 -10 25 -20 25 -5 0 -4 -6 3 -14z"/>
<path d="M1600 1083 c-10 -13 -13 -32 -10 -62 5 -45 25 -67 27 -31 1 11 -2 20
-5 20 -4 0 -9 14 -10 30 -1 17 3 30 9 30 6 0 9 -7 5 -15 -3 -8 -1 -15 3 -15
16 0 20 28 5 34 -9 3 -12 10 -9 16 10 16 1 12 -15 -7z"/>
<path d="M1410 1078 c0 -4 0 -11 1 -14 0 -4 -5 -11 -13 -15 -7 -5 -8 -9 -3 -9
6 0 19 10 29 21 15 18 20 19 28 8 8 -12 9 -12 6 0 -4 15 -48 24 -48 9z"/>
<path d="M1500 1050 c0 -5 -6 -9 -12 -7 -7 1 -12 -4 -10 -11 1 -7 -9 -17 -23
-22 -15 -6 -23 -15 -19 -23 3 -8 -2 -20 -11 -27 -14 -12 -14 -15 1 -38 11 -16
13 -27 6 -31 -7 -4 -8 -12 -1 -21 14 -23 31 8 17 33 -7 14 -7 17 1 13 6 -4 11
-2 11 3 0 6 4 11 9 11 13 0 7 -32 -13 -69 -18 -33 -18 -34 2 -29 20 6 23 -6 8
-30 -5 -9 -3 -13 5 -12 23 3 59 -12 53 -21 -3 -5 -10 -6 -16 -3 -7 4 -8 2 -4
-4 5 -9 12 -8 26 0 16 10 22 10 32 -1 7 -8 8 -11 3 -8 -6 3 -17 2 -25 -3 -9
-6 -1 -8 24 -7 32 2 39 -2 42 -18 2 -11 -2 -23 -9 -27 -8 -5 -6 -8 7 -8 13 0
17 5 13 20 -3 13 0 20 10 20 8 0 11 -4 8 -10 -3 -5 1 -10 10 -10 9 0 15 -6 12
-12 -2 -7 6 -25 19 -40 12 -15 25 -47 29 -70 4 -24 11 -48 16 -54 6 -8 2 -10
-15 -9 -32 4 -48 14 -40 26 3 5 2 9 -3 8 -16 -4 -64 21 -69 36 -4 8 -12 15
-20 15 -8 0 -14 7 -14 14 0 8 -12 21 -27 28 -28 13 -34 29 -12 37 7 2 9 -1 5
-8 -5 -7 1 -11 13 -11 12 0 21 5 21 12 0 6 -3 8 -7 5 -3 -4 -13 -1 -21 5 -22
18 -42 19 -35 0 5 -11 3 -13 -8 -7 -8 4 -1 -6 15 -23 16 -17 33 -29 38 -26 4
3 8 -1 8 -8 0 -15 69 -78 87 -78 18 0 44 -42 33 -55 -6 -7 -2 -15 12 -24 11
-7 17 -8 13 -2 -3 6 -8 20 -10 31 -3 17 -1 18 14 10 10 -5 22 -6 26 -2 5 4 5
1 1 -6 -4 -7 -12 -10 -17 -7 -5 4 -6 -2 -2 -11 4 -11 8 -13 11 -6 4 14 32 16
32 3 0 -5 3 -18 6 -28 3 -11 0 -8 -9 6 -12 20 -15 21 -20 7 -4 -9 -3 -16 2
-16 5 0 22 -14 39 -31 30 -31 46 -75 42 -118 -1 -13 3 -21 8 -17 6 4 8 -2 5
-15 -4 -14 -8 -17 -13 -9 -5 8 -10 3 -14 -13 -3 -14 -24 -39 -45 -56 l-39 -31
-10 28 c-19 54 -116 144 -135 126 -3 -3 -15 4 -26 15 -19 19 -19 25 2 22 4 0
7 3 7 9 0 5 14 7 31 5 17 -2 41 0 52 4 24 10 77 59 77 72 0 18 -17 8 -30 -16
-7 -14 -16 -23 -18 -20 -3 3 -11 0 -19 -7 -8 -6 -36 -15 -63 -19 -75 -12 -102
-29 -132 -84 -29 -53 -40 -57 -88 -29 l-25 15 24 -20 c13 -12 30 -21 38 -21 9
0 11 -5 7 -12 -6 -10 -5 -10 8 -1 8 7 18 9 22 5 4 -4 6 -2 5 3 -4 13 37 91 52
100 6 4 24 -2 40 -14 16 -12 34 -19 39 -16 6 3 10 -1 10 -9 0 -10 6 -13 17 -9
11 4 14 3 9 -5 -4 -7 -1 -12 6 -12 14 0 78 -76 78 -93 0 -5 -10 -17 -22 -28
-13 -10 -18 -18 -11 -19 6 0 13 6 16 13 9 24 28 -9 21 -37 -16 -64 -88 -80
-132 -28 -17 19 -21 21 -13 6 14 -29 32 -42 65 -48 57 -10 102 29 98 86 -2 22
3 27 26 33 36 7 87 59 77 76 -5 8 -4 10 4 5 11 -7 33 32 24 47 -2 4 1 7 6 7
17 0 13 87 -4 121 -9 16 -19 27 -24 25 -4 -3 -7 5 -7 17 1 13 -5 22 -14 22 -8
0 -14 -8 -14 -17 2 -22 -12 -24 -20 -3 -3 9 1 18 9 21 11 5 12 11 4 26 -8 15
-14 17 -24 8 -14 -12 -22 11 -24 80 -2 51 -32 100 -82 138 -24 18 -50 37 -57
43 -7 5 -17 7 -23 3 -6 -4 -6 4 2 17 11 20 14 21 17 7 4 -18 17 -24 25 -10 3
4 8 23 12 42 l7 35 -26 -28 c-24 -26 -46 -29 -46 -6 0 6 5 7 12 3 6 -4 8 -3 5
3 -4 6 2 13 14 16 18 5 19 8 7 26 -11 18 -10 22 6 34 12 9 17 20 13 31 -9 23
-32 15 -33 -10 0 -10 -8 -40 -18 -66 -10 -26 -16 -57 -13 -68 4 -18 2 -20 -16
-14 -42 12 -47 24 -44 90 3 67 -4 78 -38 62 -19 -9 -19 -8 -2 5 13 11 15 16 5
19 -9 3 -1 19 25 46 39 44 43 52 27 52 -5 0 -10 -4 -10 -10z m110 -115 c0 -8
-4 -15 -8 -15 -5 0 -9 7 -9 15 0 8 4 15 9 15 4 0 8 -7 8 -15z m204 -524 c17
-19 17 -19 -1 -15 -11 3 -20 12 -20 20 0 18 0 18 21 -5z m19 -59 c14 -15 15
-19 2 -19 -8 0 -12 4 -9 9 3 4 0 8 -5 8 -6 0 -11 5 -11 10 0 14 5 13 23 -8z
m7 -36 c0 -3 -4 -8 -10 -11 -5 -3 -10 -1 -10 4 0 6 5 11 10 11 6 0 10 -2 10
-4z"/>
<path d="M580 1033 c0 -6 8 -17 18 -24 16 -13 16 -13 2 6 -8 11 -16 22 -17 24
-2 2 -3 0 -3 -6z"/>
<path d="M1415 1030 c-3 -6 1 -7 9 -4 18 7 21 14 7 14 -6 0 -13 -4 -16 -10z"/>
<path d="M1476 981 c-5 -7 -3 -18 3 -24 14 -14 20 -6 11 17 -5 15 -9 16 -14 7z"/>
<path d="M61 919 c0 -19 5 -43 10 -54 6 -13 7 -4 3 30 -8 60 -14 72 -13 24z"/>
<path d="M1370 941 c0 -6 5 -11 11 -11 5 0 7 -6 3 -12 -13 -21 -11 -47 2 -52
8 -3 16 0 20 6 5 7 3 8 -5 3 -9 -5 -11 1 -8 23 3 20 0 35 -9 43 -10 8 -14 8
-14 0z"/>
<path d="M1405 851 c-5 -9 2 -71 10 -79 2 -2 9 6 15 18 7 13 8 20 2 16 -12 -7
-26 29 -17 44 3 5 4 10 1 10 -3 0 -7 -4 -11 -9z"/>
<path d="M1337 789 c-3 -23 -1 -53 4 -66 16 -42 10 -70 -18 -91 -30 -21 -28
-8 -36 -280 l-2 -74 -27 4 c-15 3 -25 1 -22 -4 3 -4 16 -8 30 -8 24 0 25 -2
23 -52 -4 -92 -41 -147 -114 -171 -38 -13 -47 -13 -96 4 -64 22 -73 23 -63 7
4 -7 3 -8 -5 -4 -9 6 -9 11 0 22 10 12 9 17 0 27 -10 9 -11 8 -5 -6 5 -13 2
-16 -10 -11 -9 3 -14 10 -11 14 3 4 -2 13 -10 20 -13 11 -14 10 -9 -6 24 -65
94 -114 164 -114 57 0 130 47 156 100 27 55 37 120 21 139 -10 12 -9 13 3 6
13 -8 13 -7 1 8 -10 13 -10 17 -1 17 8 0 9 6 5 18 -12 28 -18 101 -10 120 20
44 22 82 11 154 -7 41 -6 47 14 58 30 16 39 49 25 90 -6 19 -10 54 -7 78 5 54
-4 55 -11 1z"/>
<path d="M1436 755 c4 -8 8 -15 10 -15 2 0 4 7 4 15 0 8 -4 15 -10 15 -5 0 -7
-7 -4 -15z"/>
<path d="M1466 742 c4 -46 4 -47 14 -30 6 9 18 15 27 14 10 -2 12 -1 6 1 -7 3
-13 8 -13 13 0 5 -8 14 -18 19 -16 9 -19 6 -16 -17z m15 -15 c-10 -9 -11 -8
-5 6 3 10 9 15 12 12 3 -3 0 -11 -7 -18z"/>
<path d="M1244 743 c-3 -10 -5 -22 -5 -27 1 -13 31 -17 31 -4 0 6 -7 7 -16 4
-8 -3 -12 -2 -9 4 3 6 13 10 21 10 8 0 14 7 14 15 0 21 -31 19 -36 -2z"/>
<path d="M710 725 c-12 -13 -26 -22 -31 -20 -10 7 -79 -26 -79 -37 0 -5 6 -6
13 -1 6 4 17 8 22 10 6 1 20 4 31 7 30 6 63 28 69 45 9 23 0 22 -25 -4z"/>
<path d="M420 710 c6 -11 15 -18 19 -15 5 2 19 -4 32 -14 17 -12 30 -16 44
-10 19 7 19 8 -3 8 -15 1 -21 5 -16 13 5 7 2 9 -9 5 -9 -3 -27 3 -40 14 -32
24 -40 24 -27 -1z"/>
<path d="M470 722 c0 -5 9 -8 20 -5 12 3 20 0 20 -7 0 -7 7 -10 16 -6 8 3 12
2 9 -3 -3 -5 5 -13 17 -17 22 -7 22 -7 3 -15 -18 -8 -17 -8 4 -6 14 1 26 8 29
15 2 7 0 12 -5 11 -19 -3 -33 2 -33 12 0 5 5 7 10 4 6 -3 10 -1 10 4 0 6 -8
11 -19 11 -10 0 -33 3 -50 6 -19 4 -31 2 -31 -4z"/>
<path d="M1437 680 c9 -22 20 -39 25 -38 5 2 9 7 9 11 -1 4 -1 15 -1 25 0 14
-2 15 -10 2 -7 -10 -10 -11 -11 -2 -1 6 -2 17 -3 24 0 6 -6 13 -13 15 -8 3 -7
-8 4 -37z"/>
<path d="M1540 708 c0 -5 9 -8 19 -8 11 0 22 3 24 8 3 4 -6 7 -19 7 -13 0 -24
-3 -24 -7z"/>
<path d="M193 672 c-1 -22 0 -24 9 -8 6 10 6 22 2 26 -5 5 -10 -3 -11 -18z"/>
<path d="M1063 613 c0 -12 6 -19 12 -16 5 4 2 -3 -7 -14 -10 -11 -19 -31 -20
-46 -1 -16 -10 -28 -21 -31 -11 -2 -16 -9 -13 -15 6 -9 -24 -48 -41 -53 -5 -2
-7 -9 -7 -15 1 -7 -5 -13 -13 -13 -8 0 -11 5 -8 10 3 6 1 10 -4 10 -6 0 -11
-9 -11 -19 0 -26 34 -17 55 15 9 14 20 22 26 19 5 -4 8 -1 7 7 -2 7 4 12 14
10 12 -2 15 3 11 20 -4 19 -3 20 7 8 10 -13 11 -13 7 0 -2 8 2 21 10 28 15 16
17 32 3 32 -5 0 -10 5 -10 10 0 6 9 10 21 10 11 0 17 5 14 10 -3 6 -1 10 4 10
6 0 11 7 11 15 0 9 -6 12 -16 8 -9 -3 -20 0 -25 8 -6 10 -8 8 -6 -8z"/>
<path d="M1486 606 c3 -8 1 -17 -5 -21 -6 -3 -11 2 -12 12 0 10 -7 1 -15 -20
-14 -41 -16 -89 -2 -81 5 3 6 16 4 30 -3 13 0 24 6 24 5 0 8 7 4 15 -3 8 -2
14 2 13 12 -2 42 14 42 22 0 4 -7 10 -14 13 -10 4 -13 1 -10 -7z"/>
<path d="M1530 580 c-12 -7 -9 -13 14 -31 34 -27 98 -60 104 -55 2 3 -9 13
-25 22 -15 10 -31 23 -35 29 -5 6 -8 5 -8 -4 0 -11 -5 -10 -20 4 -12 10 -18
25 -16 32 6 15 6 16 -14 3z"/>
<path d="M459 563 c-7 -7 -17 -12 -23 -12 -42 7 -86 -57 -81 -116 2 -22 4 -46
4 -54 1 -7 7 -11 15 -8 8 3 16 0 18 -8 2 -10 8 -12 17 -5 12 7 12 11 2 24 -8
9 -10 16 -6 16 4 0 1 8 -6 17 -12 15 -12 16 6 9 11 -4 16 -4 12 0 -4 4 0 18 8
31 17 25 6 64 -18 62 -9 0 -9 -2 0 -5 8 -4 9 -13 3 -30 -5 -13 -7 -24 -3 -24
3 0 -2 -9 -12 -20 -20 -22 -28 -20 -30 10 -1 16 1 17 12 8 12 -9 13 -7 8 15
-5 18 -3 27 5 27 6 0 9 4 5 9 -7 13 7 21 40 23 15 2 30 8 32 15 3 7 9 11 13 8
4 -3 10 1 13 8 7 18 -20 18 -34 0z m-63 -167 c1 -7 -5 -13 -12 -13 -15 0 -19
19 -7 30 8 8 16 1 19 -17z"/>
<path d="M504 559 c-4 -6 1 -9 13 -7 11 2 27 -3 37 -11 19 -16 31 -9 23 14 -7
17 -62 21 -73 4z"/>
<path d="M905 560 c3 -5 10 -10 16 -10 5 0 9 5 9 10 0 6 -7 10 -16 10 -8 0
-12 -4 -9 -10z"/>
<path d="M1480 550 c-6 -11 -8 -20 -6 -20 3 0 10 9 16 20 6 11 8 20 6 20 -3 0
-10 -9 -16 -20z"/>
<path d="M594 548 c-3 -5 -1 -15 5 -21 9 -9 14 -8 21 3 9 14 11 13 14 -9 0 -5
5 -13 10 -18 5 -5 6 -3 2 5 -4 7 -1 12 8 12 8 0 17 -6 19 -12 4 -9 6 -7 6 3 1
19 -75 53 -85 37z"/>
<path d="M873 538 c-3 -7 -1 -8 5 -4 7 4 12 2 12 -3 0 -6 -5 -11 -12 -11 -6 0
-9 -3 -6 -6 4 -3 16 0 28 6 12 6 19 14 16 18 -11 11 -36 11 -43 0z"/>
<path d="M1150 515 c-8 -10 -8 -15 1 -21 7 -4 9 -3 5 4 -4 6 3 12 16 14 19 3
20 4 6 10 -9 4 -21 1 -28 -7z"/>
<path d="M465 512 c-18 -13 -17 -35 0 -28 9 3 21 6 26 6 4 0 6 7 3 15 -7 17
-14 18 -29 7z"/>
<path d="M517 513 c-11 -10 -8 -20 7 -26 10 -4 14 0 13 14 -1 20 -9 24 -20 12z"/>
<path d="M703 513 c-10 -4 -9 -8 1 -19 16 -16 36 -19 36 -5 0 14 -24 29 -37
24z"/>
<path d="M1462 489 c-21 -16 -22 -22 -13 -46 l11 -28 -4 28 c-3 28 8 37 18 15
3 -7 3 -2 0 11 -4 15 -2 21 4 17 6 -3 13 -2 16 3 12 19 -10 19 -32 0z"/>
<path d="M561 483 c6 -7 20 -13 31 -13 16 0 17 2 6 13 -7 8 -21 14 -30 14 -14
0 -15 -3 -7 -14z"/>
<path d="M620 465 c0 -8 7 -15 15 -15 9 0 12 6 9 15 -4 8 -10 15 -15 15 -5 0
-9 -7 -9 -15z"/>
<path d="M676 473 c-12 -12 -6 -33 9 -33 8 0 15 6 15 14 0 17 -14 28 -24 19z"/>
<path d="M1125 470 c-11 -17 5 -32 21 -19 7 6 11 15 8 20 -7 12 -21 11 -29 -1z"/>
<path d="M714 451 c7 -11 -49 -76 -65 -76 -7 0 -14 -6 -16 -12 -3 -7 0 -13 6
-13 6 0 14 0 19 0 4 0 7 5 7 11 0 13 35 40 45 34 4 -2 7 1 8 8 0 7 4 22 7 35
5 14 3 22 -4 22 -7 0 -10 -4 -7 -9z"/>
<path d="M1073 425 c0 -8 4 -12 9 -9 5 3 6 10 3 15 -9 13 -12 11 -12 -6z"/>
<path d="M1471 421 c-7 -13 -6 -23 3 -36 11 -16 13 -14 14 19 2 40 -3 45 -17
17z"/>
<path d="M895 416 c-20 -23 -17 -38 5 -26 20 11 26 25 13 33 -5 3 -12 0 -18
-7z"/>
<path d="M1110 421 c0 -5 -9 -13 -21 -16 -11 -4 -18 -12 -16 -18 6 -18 -25
-37 -44 -26 -12 6 -19 4 -23 -8 -9 -21 3 -31 15 -13 8 13 10 13 19 0 7 -11 10
-11 10 -2 0 7 5 10 12 6 6 -4 8 -3 5 3 -4 6 0 14 9 17 9 4 14 9 11 12 -3 3 6
17 21 30 15 13 21 24 15 24 -7 0 -13 -4 -13 -9z"/>
<path d="M830 402 c-12 -13 -11 -15 8 -10 11 3 23 1 26 -6 2 -6 4 -2 3 10 -1
24 -17 27 -37 6z"/>
<path d="M1049 418 c-6 -21 -5 -38 1 -38 5 0 8 9 7 20 -1 17 -5 26 -8 18z"/>
<path d="M738 403 c-7 -37 -4 -61 9 -56 10 4 11 9 4 16 -14 14 -14 30 -1 22 6
-3 7 1 4 9 -7 17 -13 21 -16 9z"/>
<path d="M695 362 c-18 -13 -14 -28 8 -29 12 0 16 1 10 4 -7 3 -13 9 -13 14 0
6 5 7 10 4 6 -3 10 -1 10 4 0 13 -11 14 -25 3z"/>
<path d="M403 343 c-14 -5 -18 -33 -5 -33 4 0 14 5 22 10 17 11 2 30 -17 23z"/>
<path d="M913 328 c-6 -7 -15 -28 -21 -46 -6 -18 -20 -44 -31 -58 -19 -25 -20
-28 -4 -58 10 -19 18 -26 21 -18 2 8 0 18 -5 23 -11 11 -5 59 8 59 4 0 14 19
20 43 7 23 17 48 22 55 5 6 7 12 4 12 -2 0 -9 -6 -14 -12z"/>
<path d="M620 304 c5 -12 6 -25 3 -28 -9 -8 8 -6 32 4 11 5 14 9 6 9 -11 1
-11 4 -1 16 8 10 9 15 2 15 -6 0 -16 -8 -22 -17 -10 -16 -10 -16 -5 3 3 14 1
21 -9 21 -11 0 -12 -6 -6 -23z"/>
<path d="M1007 301 c3 -12 9 -21 14 -21 14 0 11 16 -5 29 -12 10 -13 8 -9 -8z"/>
<path d="M530 300 c0 -5 7 -10 16 -10 8 0 12 5 9 10 -3 6 -10 10 -16 10 -5 0
-9 -4 -9 -10z"/>
<path d="M980 301 c0 -6 4 -13 10 -16 6 -3 7 1 4 9 -7 18 -14 21 -14 7z"/>
<path d="M584 281 c1 -22 26 -26 26 -4 0 14 -2 15 -9 4 -8 -12 -10 -12 -13 0
-4 12 -5 12 -4 0z"/>
<path d="M520 260 c0 -5 9 -10 20 -10 11 0 20 5 20 10 0 6 -9 10 -20 10 -11 0
-20 -4 -20 -10z"/>
<path d="M1000 255 c-7 -9 -8 -15 -2 -15 5 0 12 7 16 15 3 8 4 15 2 15 -2 0
-9 -7 -16 -15z"/>
<path d="M953 225 c0 -8 4 -15 9 -15 4 0 8 7 8 15 0 8 -4 15 -8 15 -5 0 -9 -7
-9 -15z"/>
<path d="M480 215 c7 -8 16 -12 21 -10 4 3 11 -1 16 -8 9 -15 65 -40 79 -35
18 6 91 -32 148 -76 32 -25 65 -46 73 -46 22 0 51 18 63 40 10 18 9 19 -26 4
-29 -12 -39 -13 -52 -2 -13 11 -15 11 -8 -2 9 -17 -18 12 -53 58 -13 18 -33
32 -44 32 -16 0 -17 -2 -7 -15 11 -13 10 -14 -3 -9 -9 3 -15 15 -14 26 1 15
-5 22 -23 25 -23 3 -23 3 -6 -10 17 -13 17 -14 2 -20 -11 -5 -15 -3 -10 5 5 7
-1 9 -19 6 -16 -3 -24 -1 -20 5 4 6 -3 8 -17 4 -15 -4 -35 2 -59 19 -40 27
-60 32 -41 9z m264 -101 c9 -24 2 -26 -12 -4 -7 11 -8 20 -3 20 5 0 12 -7 15
-16z"/>
<path d="M540 222 c0 -12 19 -26 26 -19 2 2 -2 10 -11 17 -9 8 -15 8 -15 2z"/>
<path d="M1369 203 c-13 -16 -12 -17 4 -4 16 13 21 21 13 21 -2 0 -10 -8 -17
-17z"/>
<path d="M1475 210 c4 -6 -4 -10 -18 -10 -42 0 -89 -64 -74 -102 3 -7 6 -1 6
13 1 15 10 38 21 51 17 22 26 25 70 23 28 -2 61 -10 73 -18 26 -17 85 -29 91
-19 2 4 -12 8 -32 9 -19 1 -38 6 -41 11 -8 12 -103 54 -96 42z"/>
<path d="M600 199 c0 -5 5 -7 10 -4 6 3 10 8 10 11 0 2 -4 4 -10 4 -5 0 -10
-5 -10 -11z"/>
<path d="M950 152 c0 -11 3 -12 13 -3 8 6 17 8 20 4 4 -3 7 -1 7 5 0 6 -9 10
-20 9 -11 -1 -20 -8 -20 -15z"/>
<path d="M1460 40 c8 -5 20 -10 25 -10 6 0 3 5 -5 10 -8 5 -19 10 -25 10 -5 0
-3 -5 5 -10z"/>
</g>
</svg>
